<svg id="Group_37" data-name="Group 37" xmlns="http://www.w3.org/2000/svg" width="289.7" height="74" viewBox="0 0 289.7 74">
  <path id="Path_231" data-name="Path 231" d="M.2,33.4A.52.52,0,0,1,0,33V.6A.52.52,0,0,1,.2.2.52.52,0,0,1,.6,0h11a10.532,10.532,0,0,1,7.3,2.4A8.377,8.377,0,0,1,21.6,9V24.6a8.377,8.377,0,0,1-2.7,6.6,10.532,10.532,0,0,1-7.3,2.4H.6A.52.52,0,0,1,.2,33.4Zm2.5-2.1h9A7.185,7.185,0,0,0,17,29.4a7.007,7.007,0,0,0,2-5.2V9.2A6.947,6.947,0,0,0,17.1,4a7.273,7.273,0,0,0-5.4-1.9h-9a.215.215,0,0,0-.2.2V31C2.5,31.3,2.6,31.3,2.7,31.3Z" fill="#fff"/>
  <path id="Path_232" data-name="Path 232" d="M29.8,33.4a.52.52,0,0,1-.2-.4V.6a.52.52,0,0,1,.2-.4.758.758,0,0,1,.4-.2h1.4a.52.52,0,0,1,.4.2.52.52,0,0,1,.2.4V33a.707.707,0,0,1-.6.6H30.2A.758.758,0,0,1,29.8,33.4Z" fill="#fff"/>
  <path id="Path_233" data-name="Path 233" d="M42.2,33.4A.52.52,0,0,1,42,33V.6a.52.52,0,0,1,.2-.4.758.758,0,0,1,.4-.2H44a.755.755,0,0,1,.7.4L62,28.3a.1.1,0,0,0,.1.1c.1,0,.1-.1.1-.2V.6a.52.52,0,0,1,.2-.4.52.52,0,0,1,.4-.2h1.4a.52.52,0,0,1,.4.2.52.52,0,0,1,.2.4V33a.707.707,0,0,1-.6.6H62.8a.755.755,0,0,1-.7-.4L44.9,5.2a.1.1,0,0,0-.1-.1c-.1,0-.1.1-.1.2V33a.707.707,0,0,1-.6.6H42.7A.764.764,0,0,1,42.2,33.4Z" fill="#fff"/>
  <path id="Path_234" data-name="Path 234" d="M77.9,32.5a11.382,11.382,0,0,1-4.5-4.2,11.7,11.7,0,0,1-1.6-6.2V.9A.845.845,0,0,1,72,.3a.908.908,0,0,1,.7-.3h6.2a.845.845,0,0,1,.6.2.735.735,0,0,1,.2.6V22.1a4.809,4.809,0,1,0,9.6,0V.9a.845.845,0,0,1,.2-.6,1.33,1.33,0,0,1,.8-.3h6.2a.845.845,0,0,1,.6.2.735.735,0,0,1,.2.6V22.1a11.7,11.7,0,0,1-1.6,6.2,11.382,11.382,0,0,1-4.5,4.2A14.381,14.381,0,0,1,84.5,34,14.549,14.549,0,0,1,77.9,32.5Z" fill="#fff"/>
  <path id="Path_235" data-name="Path 235" d="M102.1,33.4a.735.735,0,0,1-.2-.6V.9a.845.845,0,0,1,.2-.6.735.735,0,0,1,.6-.2h12a15.254,15.254,0,0,1,6.6,1.3,10.979,10.979,0,0,1,4.5,3.7,9.365,9.365,0,0,1,1.6,5.5V23.2a9.365,9.365,0,0,1-1.6,5.5,10.37,10.37,0,0,1-4.5,3.7,15.254,15.254,0,0,1-6.6,1.3h-12Zm8.1-6.6H115a3.95,3.95,0,0,0,3.1-1.4,5.314,5.314,0,0,0,1.2-3.7V11.8a5.489,5.489,0,0,0-1.2-3.7,4.158,4.158,0,0,0-3.2-1.4h-4.8a.265.265,0,0,0-.3.3V26.3C109.9,26.7,110,26.8,110.2,26.8Z" fill="#fff"/>
  <path id="Path_236" data-name="Path 236" d="M130.8,33.4a.735.735,0,0,1-.2-.6V.9a.845.845,0,0,1,.2-.6.735.735,0,0,1,.6-.2h12A15.254,15.254,0,0,1,150,1.4a10.979,10.979,0,0,1,4.5,3.7,9.365,9.365,0,0,1,1.6,5.5V23.2a9.365,9.365,0,0,1-1.6,5.5,10.37,10.37,0,0,1-4.5,3.7,15.254,15.254,0,0,1-6.6,1.3h-12Zm8.1-6.6h4.8a3.95,3.95,0,0,0,3.1-1.4,5.314,5.314,0,0,0,1.2-3.7V11.8a5.489,5.489,0,0,0-1.2-3.7,4.158,4.158,0,0,0-3.2-1.4h-4.8a.265.265,0,0,0-.3.3V26.3C138.5,26.7,138.6,26.8,138.9,26.8Z" fill="#fff" opacity="0.4"/>
  <path id="Path_237" data-name="Path 237" d="M173.7,13.9a.735.735,0,0,1,.2.6v5.1a.845.845,0,0,1-.2.6.735.735,0,0,1-.6.2h-5.7a.265.265,0,0,0-.3.3v5.7a.845.845,0,0,1-.2.6.735.735,0,0,1-.6.2h-5a.845.845,0,0,1-.6-.2.735.735,0,0,1-.2-.6V20.7a.265.265,0,0,0-.3-.3h-5.8a.845.845,0,0,1-.6-.2.735.735,0,0,1-.2-.6V14.5a.845.845,0,0,1,.2-.6.735.735,0,0,1,.6-.2h5.8a.265.265,0,0,0,.3-.3V7.5a.845.845,0,0,1,.2-.6.735.735,0,0,1,.6-.2h5a.845.845,0,0,1,.6.2.735.735,0,0,1,.2.6v5.8a.265.265,0,0,0,.3.3h5.7A.6.6,0,0,1,173.7,13.9Z" fill="#fff" opacity="0.2"/>
  <path id="Path_238" data-name="Path 238" d="M.3,73.4a.908.908,0,0,1-.3-.7V40.9a.845.845,0,0,1,.2-.6A.908.908,0,0,1,.9,40h12a15.254,15.254,0,0,1,6.6,1.3A10.979,10.979,0,0,1,24,45a9.365,9.365,0,0,1,1.6,5.5V63.1A9.365,9.365,0,0,1,24,68.6a10.37,10.37,0,0,1-4.5,3.7,15.254,15.254,0,0,1-6.6,1.3H.9A.845.845,0,0,1,.3,73.4Zm8-6.6h4.8a3.95,3.95,0,0,0,3.1-1.4,5.314,5.314,0,0,0,1.2-3.7V51.8a5.489,5.489,0,0,0-1.2-3.7A4.158,4.158,0,0,0,13,46.7H8.3A.265.265,0,0,0,8,47V66.3C8,66.7,8.1,66.8,8.3,66.8Z" fill="#fff"/>
  <path id="Path_239" data-name="Path 239" d="M48.8,72.9,47.7,69c0-.2-.2-.3-.4-.3H36.5c-.2,0-.3.1-.4.3L35,72.9c-.1.5-.4.7-1,.7H27.2a.908.908,0,0,1-.7-.3.846.846,0,0,1,0-.7L36.6,40.7a.963.963,0,0,1,1-.7h8.5a.9.9,0,0,1,1,.7L57.2,72.6v.3c0,.4-.3.6-.8.6H49.6C49.3,73.6,49,73.4,48.8,72.9ZM38.1,62.2a.265.265,0,0,0,.3.3h7.1a.367.367,0,0,0,.3-.1c0-.1.1-.2,0-.3L42.2,49.3c0-.2-.1-.2-.2-.2a.215.215,0,0,0-.2.2L38.1,62.2Z" fill="#fff"/>
  <path id="Path_240" data-name="Path 240" d="M61.2,73.4a1.445,1.445,0,0,1-.2-.7V40.9a.845.845,0,0,1,.2-.6.735.735,0,0,1,.6-.2h5.9a1.1,1.1,0,0,1,1,.6L79.3,58.6c.1.1.1.2.2.1.1,0,.1-.1.1-.3V41a.845.845,0,0,1,.2-.6.735.735,0,0,1,.6-.2h6.1a.845.845,0,0,1,.6.2.735.735,0,0,1,.2.6V72.9a.845.845,0,0,1-.2.6.735.735,0,0,1-.6.2H80.6a1.1,1.1,0,0,1-1-.6L69.2,54.9c-.1-.2-.2-.2-.3-.2s-.2.1-.2.3l.1,17.7a.845.845,0,0,1-.2.6.735.735,0,0,1-.6.2H61.9A.821.821,0,0,1,61.2,73.4Z" fill="#fff"/>
  <path id="Path_241" data-name="Path 241" d="M92.4,73.4a.735.735,0,0,1-.2-.6V40.9a.845.845,0,0,1,.2-.6.735.735,0,0,1,.6-.2h6a1.1,1.1,0,0,1,1,.6l10.6,17.9c.1.1.1.2.2.1.1,0,.1-.1.1-.3V41a.845.845,0,0,1,.2-.6.735.735,0,0,1,.6-.2h6.1a.845.845,0,0,1,.6.2.735.735,0,0,1,.2.6V72.9a.845.845,0,0,1-.2.6.735.735,0,0,1-.6.2H112a1.1,1.1,0,0,1-1-.6L100.4,55c-.1-.2-.2-.2-.3-.2s-.2.1-.2.3l.1,17.7a.845.845,0,0,1-.2.6.735.735,0,0,1-.6.2H93A1.421,1.421,0,0,1,92.4,73.4Z" fill="#fff"/>
  <path id="Path_242" data-name="Path 242" d="M147,46.6a.735.735,0,0,1-.6.2H131.7a.265.265,0,0,0-.3.3v5.7a.265.265,0,0,0,.3.3H141a.845.845,0,0,1,.6.2.735.735,0,0,1,.2.6v5a.845.845,0,0,1-.2.6.735.735,0,0,1-.6.2h-9.3a.265.265,0,0,0-.3.3v6.1a.265.265,0,0,0,.3.3h14.7a.845.845,0,0,1,.6.2.735.735,0,0,1,.2.6v5.1a.845.845,0,0,1-.2.6.735.735,0,0,1-.6.2H124.3a.845.845,0,0,1-.6-.2.735.735,0,0,1-.2-.6V40.9a.845.845,0,0,1,.2-.6.735.735,0,0,1,.6-.2h22.1a.845.845,0,0,1,.6.2.735.735,0,0,1,.2.6V46A1.421,1.421,0,0,1,147,46.6Z" fill="#fff"/>
  <path id="Path_243" data-name="Path 243" d="M151.3,73.4a.735.735,0,0,1-.2-.6V40.9a.845.845,0,0,1,.2-.6.735.735,0,0,1,.6-.2h6.2a.845.845,0,0,1,.6.2.735.735,0,0,1,.2.6V66.5a.265.265,0,0,0,.3.3h14.9a.845.845,0,0,1,.6.2.735.735,0,0,1,.2.6v5.1a.845.845,0,0,1-.2.6.735.735,0,0,1-.6.2H151.7C151.6,73.6,151.4,73.5,151.3,73.4Z" fill="#fff"/>
  <path id="Path_244" data-name="Path 244" d="M183.8,72.7a10.77,10.77,0,0,1-4.5-3.6,9.365,9.365,0,0,1-1.6-5.5V63a.845.845,0,0,1,.2-.6.735.735,0,0,1,.6-.2h6.1a.845.845,0,0,1,.6.2c.2.1.2.2.2.4v.6a3.3,3.3,0,0,0,1.6,2.7,6.347,6.347,0,0,0,4,1.2,4.589,4.589,0,0,0,3.1-.9,2.643,2.643,0,0,0,1-2.1,2.351,2.351,0,0,0-1.2-2.1,24.9,24.9,0,0,0-4.2-1.7l-1.1-.3a46.5,46.5,0,0,1-5.4-2.2,12.276,12.276,0,0,1-3.9-3.3,8.067,8.067,0,0,1-1.6-5.2,8.454,8.454,0,0,1,1.6-5.2,9.772,9.772,0,0,1,4.3-3.4,17.273,17.273,0,0,1,12.9.1,10.862,10.862,0,0,1,4.6,3.8,9.752,9.752,0,0,1,1.7,5.6v.4a.845.845,0,0,1-.2.6.735.735,0,0,1-.6.2h-6c-.3,0-.5,0-.6-.1-.2-.1-.2-.2-.2-.4v-.4a3.984,3.984,0,0,0-1.5-3,5.676,5.676,0,0,0-4-1.3,4.985,4.985,0,0,0-2.9.8,2.529,2.529,0,0,0-1.1,2.2,2.41,2.41,0,0,0,.7,1.8,5.832,5.832,0,0,0,2.1,1.3c.9.4,2.4.9,4.3,1.6,2.2.8,4,1.4,5.2,2a11.07,11.07,0,0,1,3.5,2.8,7.65,7.65,0,0,1,1.7,5.1,8.752,8.752,0,0,1-1.6,5.3,10,10,0,0,1-4.5,3.5,16.9,16.9,0,0,1-6.6,1.2A15.716,15.716,0,0,1,183.8,72.7Z" fill="#fff"/>
  <path id="Path_245" data-name="Path 245" d="M230.7,46.6a.735.735,0,0,1-.6.2H215.4a.265.265,0,0,0-.3.3v5.7a.265.265,0,0,0,.3.3h9.3a.845.845,0,0,1,.6.2.735.735,0,0,1,.2.6v5a.845.845,0,0,1-.2.6.735.735,0,0,1-.6.2h-9.3a.265.265,0,0,0-.3.3v6.1a.265.265,0,0,0,.3.3h14.7a.845.845,0,0,1,.6.2.735.735,0,0,1,.2.6v5.1a.845.845,0,0,1-.2.6.735.735,0,0,1-.6.2H208a.845.845,0,0,1-.6-.2.735.735,0,0,1-.2-.6V40.9a.845.845,0,0,1,.2-.6.735.735,0,0,1,.6-.2h22.1a.845.845,0,0,1,.6.2.735.735,0,0,1,.2.6V46C231,46.2,230.9,46.4,230.7,46.6Z" fill="#fff"/>
  <path id="Path_246" data-name="Path 246" d="M237.5,73.4a.52.52,0,0,1-.2-.4V40.6a.707.707,0,0,1,.6-.6h11a10.532,10.532,0,0,1,7.3,2.4,8.377,8.377,0,0,1,2.7,6.6V64.6a8.377,8.377,0,0,1-2.7,6.6,10.532,10.532,0,0,1-7.3,2.4h-11A.758.758,0,0,1,237.5,73.4Zm2.6-2.1h9a7.185,7.185,0,0,0,5.3-1.9,7.007,7.007,0,0,0,2-5.2v-15a6.947,6.947,0,0,0-1.9-5.2,7.273,7.273,0,0,0-5.4-1.9h-9a.215.215,0,0,0-.2.2V71C239.9,71.3,239.9,71.3,240.1,71.3Z" fill="#fff"/>
  <path id="Path_247" data-name="Path 247" d="M267.2,73.4a.52.52,0,0,1-.2-.4V40.6a.707.707,0,0,1,.6-.6H269a.707.707,0,0,1,.6.6V57.4c0,.1,0,.1.1.1h.1L286,40.3a.908.908,0,0,1,.7-.3h1.5c.4,0,.5.1.5.3,0,.1-.1.2-.2.4L276.6,53.8a.187.187,0,0,0,0,.3l13,18.8a.367.367,0,0,1,.1.3c0,.3-.2.4-.5.4h-1.7a.755.755,0,0,1-.7-.4l-12-17.3a.1.1,0,0,0-.1-.1h-.1l-5,5.1c-.1.1-.1.1-.1.2V73a.707.707,0,0,1-.6.6h-1.4C267.4,73.6,267.3,73.5,267.2,73.4Z" fill="#fff"/>
</svg>
